<svg width="24" height="22" viewBox="0 0 24 22" fill="none" xmlns="http://www.w3.org/2000/svg">
<path d="M10.6549 1.85526C11.2051 0.740386 12.7949 0.740386 13.3451 1.85525L15.2008 5.61528C15.5649 6.35314 16.2689 6.86456 17.0831 6.98288L21.2326 7.58583C22.4629 7.76461 22.9542 9.27657 22.0639 10.1444L19.0613 13.0711C18.4721 13.6455 18.2032 14.473 18.3423 15.284L19.0511 19.4166C19.2613 20.642 17.9752 21.5764 16.8747 20.9979L13.1634 19.0467C12.435 18.6638 11.565 18.6638 10.8366 19.0467L7.12528 20.9979C6.02484 21.5764 4.73869 20.642 4.94886 19.4166L5.65766 15.284C5.79676 14.473 5.52789 13.6455 4.93867 13.0711L1.93611 10.1444C1.04584 9.27657 1.5371 7.76461 2.76743 7.58583L6.91687 6.98288C7.73114 6.86456 8.43506 6.35314 8.79921 5.61528L10.6549 1.85526Z" stroke="#FEFEFE"/>
</svg>
